<svg xmlns="http://www.w3.org/2000/svg" viewBox="0 0 300 300">
  <defs>
    <clipPath id="circle">
      <circle cx="150" cy="150" r="145"/>
    </clipPath>
  </defs>
  <g clip-path="url(#circle)">
    <!-- Skin -->
    <rect x="0" y="0" width="300" height="300" fill="#F5F0E8"/>
    <!-- Hair back -->
    <ellipse cx="150" cy="155" rx="104" ry="124" fill="#D0D0D8"/>
    <ellipse cx="150" cy="152" rx="98" ry="118" fill="#E0E0E8"/>
    <!-- Face -->
    <ellipse cx="150" cy="168" rx="62" ry="72" fill="#F5F0E8"/>
    <!-- Neck -->
    <rect x="131" y="228" width="38" height="26" fill="#F5F0E8"/>
    <rect x="134" y="230" width="32" height="6" fill="#E5E0D8" opacity="0.4"/>
    <!-- Body / Mage outfit -->
    <rect x="86" y="242" width="128" height="68" rx="10" fill="#222240"/>
    <rect x="86" y="242" width="128" height="68" rx="10" fill="#2A2A4E" opacity="0.4"/>
    <!-- Mage robe top -->
    <path d="M112 242 Q150 258 188 242" fill="none" stroke="#555" stroke-width="2.5"/>
    <path d="M120 242 Q150 256 180 242" fill="white" stroke="#EEE" stroke-width="1"/>
    <path d="M124 242 L150 254 L176 242" fill="#FAFAFA"/>
    <!-- Robe clasp -->
    <ellipse cx="150" cy="252" rx="6" ry="7" fill="#D4A017"/>
    <ellipse cx="150" cy="252" rx="4" ry="5" fill="#B8860B"/>
    <ellipse cx="150" cy="252" rx="2" ry="2.5" fill="#8B6508"/>
    <!-- Belt -->
    <rect x="86" y="262" width="128" height="5" rx="2" fill="#444"/>
    <rect x="86" y="267" width="128" height="4" rx="1" fill="#D4A017"/>
    <rect x="86" y="271" width="128" height="3" rx="1" fill="#8B6508" opacity="0.5"/>
    <!-- Robe bottom decoration -->
    <rect x="120" y="280" width="60" height="2" rx="1" fill="#D4A017" opacity="0.4"/>
    <!-- Hair long wavy -->
    <path d="M84 136 Q84 60 150 52 Q216 60 216 136" fill="#E0E0E8"/>
    <path d="M88 136 Q88 65 150 56 Q212 65 212 136" fill="#E8E8F0"/>
    <!-- Hair bangs -->
    <path d="M92 136 Q92 80 150 72 Q208 80 208 136" fill="#D8D8E0"/>
    <path d="M96 136 Q96 84 150 76 Q204 84 204 136" fill="#E0E0E8" opacity="0.6"/>
    <!-- Curtain bangs -->
    <path d="M92 136 Q92 88 130 80 Q140 78 148 84 Q150 88 148 94 Q140 100 135 136" fill="#D8D8E0"/>
    <path d="M208 136 Q208 88 170 80 Q160 78 152 84 Q150 88 152 94 Q160 100 165 136" fill="#D8D8E0"/>
    <!-- Side hair -->
    <path d="M84 136 Q78 178 86 240" fill="none" stroke="#E0E0E8" stroke-width="22" stroke-linecap="round"/>
    <path d="M216 136 Q222 178 214 240" fill="none" stroke="#E0E0E8" stroke-width="22" stroke-linecap="round"/>
    <path d="M86 136 Q80 176 88 238" fill="none" stroke="#E8E8F0" stroke-width="16" stroke-linecap="round"/>
    <path d="M214 136 Q220 176 212 238" fill="none" stroke="#E8E8F0" stroke-width="16" stroke-linecap="round"/>
    <!-- Hair strands -->
    <path d="M100 108 Q98 82 106 72" fill="none" stroke="#C8C8D0" stroke-width="2.5" stroke-linecap="round"/>
    <path d="M200 108 Q202 82 194 72" fill="none" stroke="#C8C8D0" stroke-width="2.5" stroke-linecap="round"/>
    <path d="M110 96 Q108 78 115 68" fill="none" stroke="#C8C8D0" stroke-width="2" stroke-linecap="round" opacity="0.6"/>
    <path d="M190 96 Q192 78 185 68" fill="none" stroke="#C8C8D0" stroke-width="2" stroke-linecap="round" opacity="0.6"/>
    <!-- Eyes - green -->
    <!-- Left eye -->
    <ellipse cx="124" cy="166" rx="15" ry="17" fill="white"/>
    <ellipse cx="124" cy="168" rx="13" ry="14" fill="#5B9E5B"/>
    <ellipse cx="124" cy="171" rx="9" ry="10" fill="#3A7A3A"/>
    <ellipse cx="124" cy="173" rx="5" ry="6" fill="#2A5A2A"/>
    <circle cx="119" cy="163" r="4.5" fill="white"/>
    <circle cx="129" cy="174" r="2.2" fill="white"/>
    <circle cx="114" cy="166" r="1.5" fill="white" opacity="0.5"/>
    <!-- Right eye -->
    <ellipse cx="176" cy="166" rx="15" ry="17" fill="white"/>
    <ellipse cx="176" cy="168" rx="13" ry="14" fill="#5B9E5B"/>
    <ellipse cx="176" cy="171" rx="9" ry="10" fill="#3A7A3A"/>
    <ellipse cx="176" cy="173" rx="5" ry="6" fill="#2A5A2A"/>
    <circle cx="171" cy="163" r="4.5" fill="white"/>
    <circle cx="181" cy="174" r="2.2" fill="white"/>
    <circle cx="186" cy="166" r="1.5" fill="white" opacity="0.5"/>
    <!-- Eyebrows - calm -->
    <path d="M106 148 Q124 143 142 147" fill="none" stroke="#B0B0B8" stroke-width="2.5" stroke-linecap="round"/>
    <path d="M158 147 Q176 143 194 148" fill="none" stroke="#B0B0B8" stroke-width="2.5" stroke-linecap="round"/>
    <!-- Mouth -->
    <path d="M140 188 Q150 193 160 188" fill="none" stroke="#D0A0A0" stroke-width="2" stroke-linecap="round"/>
    <!-- Blush -->
    <ellipse cx="112" cy="184" rx="11" ry="5" fill="#E8C0C0" opacity="0.25"/>
    <ellipse cx="188" cy="184" rx="11" ry="5" fill="#E8C0C0" opacity="0.25"/>
    <!-- Mage hat -->
    <path d="M104 80 Q106 44 150 32 Q194 44 196 80" fill="#222240"/>
    <path d="M106 80 Q108 48 150 36 Q192 48 194 80" fill="#2A2A4E"/>
    <path d="M104 80 Q150 68 196 80" fill="#3A3A5E"/>
    <path d="M104 80 Q150 72 196 80 Q150 85 104 80Z" fill="#2A2A4E"/>
    <!-- Hat brim -->
    <path d="M96 82 Q150 72 204 82 Q150 88 96 82Z" fill="#3A3A5E"/>
    <path d="M96 82 Q150 74 204 82 Q150 86 96 82Z" fill="#444468" opacity="0.5"/>
    <!-- Hat star -->
    <polygon points="150,50 153,60 164,60 156,67 159,78 150,72 141,78 144,67 136,60 147,60" fill="#D4A017"/>
    <polygon points="150,53 152,60 160,60 154,65 156,74 150,69 144,74 146,65 140,60 148,60" fill="#E0B820"/>
    <!-- Hat rim star shine -->
    <circle cx="150" cy="56" r="1.5" fill="#FFE880" opacity="0.6"/>
    <!-- Fill bottom -->
    <rect x="0" y="285" width="300" height="15" fill="#222240"/>
    <!-- Decor ring -->
    <circle cx="150" cy="150" r="135" fill="none" stroke="#D0D0D8" stroke-width="0.5" opacity="0.3"/>
    <circle cx="150" cy="150" r="125" fill="none" stroke="#5B9E5B" stroke-width="0.5" opacity="0.15"/>
  </g>
  <!-- Border -->
  <circle cx="150" cy="150" r="145" fill="none" stroke="#C0C0C8" stroke-width="3"/>
</svg>
